Coordinates
version=1
nRows=19
nColumns=34
inDegrees=yes

Units are S.I. units (second, meters, Newtons, ...)
If the header above contains a line with 'inDegrees', this indicates whether rotational values are in degrees (yes) or radians (no).

endheader
time	pelvis_tilt	pelvis_list	pelvis_rotation	pelvis_tx	pelvis_ty	pelvis_tz	hip_flexion_r	hip_adduction_r	hip_rotation_r	knee_angle_r	ankle_angle_r	subtalar_angle_r	mtp_angle_r	hip_flexion_l	hip_adduction_l	hip_rotation_l	knee_angle_l	ankle_angle_l	subtalar_angle_l	mtp_angle_l	lumbar_extension	lumbar_bending	lumbar_rotation	arm_flex_r	arm_add_r	arm_rot_r	elbow_flex_r	pro_sup_r	arm_flex_l	arm_add_l	arm_rot_l	elbow_flex_l	pro_sup_l
     19.96666670	     -1.01397704	     -0.88545249	    279.44459000	      0.28903566	      1.06650888	     -0.20078123	     -6.75683071	      0.17797969	    -36.53441914	     12.22594862	     -4.69530719	     -9.64648732	      0.00000000	      0.38259219	      5.19806777	      3.21469784	      5.84913435	     -0.25965225	     -3.81542231	      0.00000000	     -1.79373241	    -18.66374688	     33.91017615	     26.53660638	    -14.87304484	     41.18676490	     23.44400523	    119.74817918	     13.28912570	     -6.85444785	     -0.52490635	     21.74048363	    119.74817918
     19.98333330	     -0.98910874	     -0.90327870	    279.46887640	      0.28897787	      1.06640876	     -0.20060313	     -6.79718034	      0.17587645	    -36.52693599	     12.24635963	     -4.69458816	     -9.64396546	      0.00000000	      0.35407381	      5.22775546	      3.21460640	      5.86162314	     -0.26458285	     -3.80900621	      0.00000000	     -1.73323771	    -18.62169772	     33.89895897	     26.56766615	    -14.81325221	     41.20154295	     23.47823574	    119.74817918	     13.34614194	     -6.76344983	     -0.50023994	     21.76683832	    119.74817918
     20.00000000	     -0.96266633	     -0.92973613	    279.50019789	      0.28893817	      1.06635362	     -0.20047560	     -6.83624740	      0.16768855	    -36.51945838	     12.26493280	     -4.68471603	     -9.64580629	      0.00000000	      0.32569841	      5.24964010	      3.21445670	      5.87488216	     -0.26388997	     -3.80479258	      0.00000000	     -1.69924661	    -18.58695772	     33.89902755	     26.57843029	    -14.70868854	     41.22770428	     23.52521534	    119.74817918	     13.40425165	     -6.66502372	     -0.47141970	     21.79120145	    119.74817918
     20.01666670	     -0.93419505	     -0.96504301	    279.52420589	      0.28882014	      1.06628201	     -0.20033104	     -6.88088390	      0.15677460	    -36.51226284	     12.28357458	     -4.66724310	     -9.65167693	      0.00000000	      0.28938240	      5.25966418	      3.21411512	      5.89400551	     -0.25771052	     -3.80347930	      0.00000000	     -1.66307035	    -18.56748805	     33.88982655	     26.57850208	    -14.61161866	     41.25522164	     23.56829781	    119.74817918	     13.46499330	     -6.58336150	     -0.44415431	     21.81257465	    119.74817918
     20.03333330	     -0.89936126	     -1.00259895	    279.56537746	      0.28873962	      1.06622243	     -0.20013744	     -6.93087089	      0.13566339	    -36.50358844	     12.29757555	     -4.63967360	     -9.66145056	      0.00000000	      0.23713241	      5.25766273	      3.21278177	      5.92151498	     -0.24519419	     -3.80526161	      0.00000000	     -1.62741724	    -18.55392332	     33.89134371	     26.58232354	    -14.50250351	     41.28597270	     23.61707906	    119.74817918	     13.52609796	     -6.50584364	     -0.41519847	     21.83094323	    119.74817918
     20.05000000	     -0.86747925	     -1.03830987	    279.60099306	      0.28861794	      1.06614791	     -0.19987889	     -6.98377235	      0.11370366	    -36.49553876	     12.30839133	     -4.61069025	     -9.67176542	      0.00000000	      0.18679344	      5.25387233	      3.21118499	      5.94783855	     -0.23012098	     -3.80847520	      0.00000000	     -1.58753820	    -18.54411318	     33.88978685	     26.58560097	    -14.40613587	     41.31288585	     23.65920997	    119.74817918	     13.58720903	     -6.43872424	     -0.38963168	     21.84880708	    119.74817918
     20.06666670	     -0.59543211	     -1.67537734	    279.65004023	      0.28845589	      1.06695612	     -0.19961769	     -7.76517266	     -0.02438228	    -36.41814846	     12.28695858	     -4.23011135	     -9.49782755	      0.00000000	     -0.66138641	      5.39042965	      3.21185911	      5.82790671	     -0.03203226	     -3.52939198	      0.00000000	     -2.37820976	    -18.71864852	     33.84617139	     26.78401306	    -14.52065025	     41.95914288	     23.91206280	    119.74817918	     13.96623529	     -6.39065901	      0.36695271	     21.54237695	    119.74817918
     20.08333330	     -0.57586267	     -1.68468248	    279.65902501	      0.28831634	      1.06678911	     -0.19929141	     -7.79451313	     -0.02550892	    -36.42758540	     12.28535578	     -4.22636792	     -9.50073354	      0.00000000	     -0.69248669	      5.40178577	      3.20425157	      5.84593828	     -0.03409723	     -3.53010891	      0.00000000	     -2.30595029	    -18.68707033	     33.84118356	     26.79168622	    -14.45991601	     41.97247806	     23.93433882	    119.74817918	     14.01031361	     -6.33691250	      0.38325938	     21.56474243	    119.74817918
     20.10000000	     -0.55483580	     -1.69380220	    279.68009113	      0.28811831	      1.06666225	     -0.19889583	     -7.84493426	     -0.02036513	    -36.44000595	     12.28753106	     -4.21385764	     -9.50669550	      0.00000000	     -0.71822986	      5.41202146	      3.19610936	      5.86478247	     -0.03058716	     -3.53253955	      0.00000000	     -2.24407991	    -18.66621309	     33.85997765	     26.77801506	    -14.33722466	     41.99929992	     23.97009391	    119.74817918	     14.05249509	     -6.25371037	      0.40838800	     21.58761308	    119.74817918
     20.11666670	     -0.53250291	     -1.71128186	    279.68402772	      0.28784143	      1.06654649	     -0.19843476	     -7.90484301	     -0.01186434	    -36.45378091	     12.28918397	     -4.19357860	     -9.51482085	      0.00000000	     -0.74544960	      5.41105573	      3.19158075	      5.88792434	     -0.02134855	     -3.53506337	      0.00000000	     -2.18520725	    -18.66855961	     33.87315610	     26.74281788	    -14.22523411	     42.02851625	     23.99466320	    119.74817918	     14.09135435	     -6.18101162	      0.43422202	     21.60556634	    119.74817918
     20.13333330	     -0.45875167	     -1.79960182	    279.67077346	      0.28754730	      1.06656113	     -0.19747172	     -8.13872124	     -0.00695826	    -36.53129797	     12.15613981	     -4.04800133	     -9.52342491	      0.00000000	     -0.87233725	      5.44127316	      3.17791414	      5.95319395	      0.08924592	     -3.53817417	      0.00000000	     -2.09678269	    -18.73662626	     34.04083148	     26.57651460	    -14.08045620	     42.14675742	     23.94626527	    119.74817918	     14.11873498	     -6.21472143	      0.54795364	     21.56777956	    119.74817918
     20.15000000	     -0.44558970	     -1.81397913	    279.68234560	      0.28733888	      1.06650188	     -0.19723232	     -8.17420087	     -0.01426892	    -36.53012733	     12.15918564	     -4.04242727	     -9.51706935	      0.00000000	     -0.88741045	      5.42255675	      3.17787700	      5.95719584	      0.09545263	     -3.53593720	      0.00000000	     -2.05590687	    -18.73995275	     34.04835774	     26.58671253	    -14.01832613	     42.15894956	     23.96527018	    119.74817918	     14.14499543	     -6.13817610	      0.57094301	     21.58150804	    119.74817918
     20.16666670	     -0.42200627	     -1.84180623	    279.70915944	      0.28706657	      1.06642365	     -0.19685383	     -8.22279040	     -0.00844564	    -36.53482885	     12.16568648	     -4.02533798	     -9.51368541	      0.00000000	     -0.92031450	      5.40660831	      3.18287192	      5.97873726	      0.10669310	     -3.53133531	      0.00000000	     -2.01325362	    -18.74645824	     34.09071374	     26.57761226	    -13.89257189	     42.18473207	     23.99588488	    119.74817918	     14.17205094	     -6.03948888	      0.60274380	     21.59489790	    119.74817918
     20.18333330	     -0.36024991	     -2.37740968	    279.41265518	      0.28651239	      1.06711110	     -0.19556538	     -9.00763522	      0.04671955	    -36.67874479	     11.86801623	     -3.67370286	     -8.64173079	      0.00000000	     -1.74459214	      5.33284562	      2.89101571	      5.71945730	      0.33431371	     -3.14260355	      0.00000000	     -2.32222956	    -18.64752478	     34.57495094	     26.54933682	    -13.83668356	     42.70489698	     23.72640064	    119.74817918	     14.35329185	     -6.02634909	      1.69695882	     21.16883357	    119.74817918
     20.20000000	     -0.34056866	     -2.39233854	    279.45714101	      0.28611557	      1.06692288	     -0.19517441	     -9.03631377	      0.06291568	    -36.68841410	     11.89100517	     -3.66477684	     -8.64696202	      0.00000000	     -1.76989191	      5.33380964	      2.88627167	      5.74505125	      0.33662590	     -3.14342383	      0.00000000	     -2.26517837	    -18.65697788	     34.59735097	     26.54750634	    -13.74756220	     42.72158543	     23.75767160	    119.74817918	     14.38436916	     -5.95475350	      1.71558970	     21.19295913	    119.74817918
     20.21666670	     -0.31776891	     -2.41350297	    279.46934046	      0.28575203	      1.06686111	     -0.19471684	     -9.07513962	      0.08150826	    -36.71096525	     11.91162616	     -3.64256162	     -8.66133820	      0.00000000	     -1.79055467	      5.32595583	      2.89156973	      5.78409760	      0.34304183	     -3.13987209	      0.00000000	     -2.23592966	    -18.68662897	     34.62420017	     26.47336503	    -13.62122173	     42.75541999	     23.78119617	    119.74817918	     14.40443425	     -5.88031417	      1.73760330	     21.21162721	    119.74817918
     20.23333330	     -0.29514451	     -2.41045968	    279.47092057	      0.28531816	      1.06666918	     -0.19447877	     -9.08402733	      0.10010684	    -36.71424593	     11.92087664	     -3.64097777	     -8.66221498	      0.00000000	     -1.79231903	      5.33215416	      2.89241515	      5.78811973	      0.34378797	     -3.13909831	      0.00000000	     -2.23096372	    -18.68248392	     34.62814146	     26.46774659	    -13.61196299	     42.75822872	     23.78258188	    119.74817918	     14.40469990	     -5.87278155	      1.73964120	     21.21276497	    119.74817918
     20.25000000	     -0.21646528	     -2.49873517	    279.52538047	      0.28505662	      1.06668831	     -0.19309967	     -9.30572470	      0.08732723	    -36.83879183	     11.90397014	     -3.51511718	     -8.71709405	      0.00000000	     -1.91517865	      5.36559780	      2.94806441	      5.94436814	      0.43102479	     -3.10761455	      0.00000000	     -2.07582053	    -18.75429820	     34.82414573	     26.17780488	    -13.40655612	     42.87364952	     23.73753618	    119.74817918	     14.38461662	     -5.84877104	      1.79272235	     21.20512996	    119.74817918
     20.26666670	     -0.18843934	     -2.50488328	    279.53322777	      0.28457521	      1.06656818	     -0.19275419	     -9.34187926	      0.10228147	    -36.85035597	     11.91226927	     -3.50455216	     -8.71294808	      0.00000000	     -1.94213897	      5.35360247	      2.95231853	      5.95669525	      0.44685268	     -3.10439428	      0.00000000	     -2.03159780	    -18.77787168	     34.83480415	     26.15101283	    -13.33246477	     42.89386013	     23.74957368	    119.74817918	     14.39258680	     -5.75588230	      1.81526061	     21.21521632	    119.74817918
